<svg width="120" height="120" viewBox="0 0 120 120" fill="none" xmlns="http://www.w3.org/2000/svg">
<g clip-path="url(#clip0_32_506)">
<path d="M60 0C26.8629 0 0 26.8629 0 60C0 93.1371 26.8629 120 60 120C93.1371 120 120 93.1371 120 60C120 26.8629 93.1371 0 60 0ZM59.8784 33.3625C65.4127 33.4353 69.9967 37.9406 71.5197 43.6816C72.1004 46.024 72.1659 48.4004 71.5805 50.8814C70.6978 54.3743 68.9307 57.7862 65.6382 59.8822L70.4368 62.1618L81.8389 67.6823C82.9588 68.1623 83.5182 69.1222 83.5182 70.5623V81.5995C83.5182 83.8758 83.699 85.8388 80.8776 86.6413H38.8792C36.1658 86.6022 36.0534 83.8539 36.117 81.5995V70.5623C36.117 69.1223 36.7179 68.1208 37.9179 67.5607L49.677 62.1618L54.2401 60C52.1601 58.64 50.5199 56.7617 49.3199 54.3617C47.8789 51.1933 47.3076 47.0803 48.3587 43.3206C49.6875 38.2244 53.8491 33.6458 59.8784 33.3625ZM40.3191 38.4005C42.0792 38.4005 43.6778 38.922 45.1177 39.962C44.7184 41.0818 44.3802 42.2629 44.0994 43.503C43.8195 44.7428 43.6777 46.041 43.6777 47.4011C43.6777 49.4012 43.9573 51.321 44.5173 53.1611C45.0772 55.001 45.8783 56.6828 46.9186 58.2029C46.4385 58.8428 45.7999 59.4022 44.9998 59.8822L36.1168 63.9627C34.9168 64.6027 33.9569 65.5003 33.2369 66.6604C32.5169 67.8204 32.1579 69.1223 32.1579 70.5624V81.5996H23.4003C22.1298 81.5798 21.2717 80.2994 21.2384 78.9628V68.5221C21.2384 67.3221 21.6768 66.5208 22.5568 66.1208L35.8777 60C32.436 57.8844 30.7756 54.0605 30.6004 49.8024C30.661 44.5562 34.0996 38.8363 40.3191 38.4005ZM79.6771 38.4005C85.2062 38.4879 89.2 43.9696 89.3998 49.8025C89.3694 53.662 87.8629 57.3888 84.358 59.8823L97.4393 66.1209C98.3193 66.6009 98.7577 67.4021 98.7577 68.5222V78.9629C98.7445 80.2021 98.0757 81.4732 96.5997 81.5996H87.5989V70.5623C87.5989 69.1223 87.2399 67.8204 86.5199 66.6603C85.7999 65.5002 84.8399 64.6027 83.6399 63.9627C79.9095 62.2288 75.6253 60.9843 72.8382 58.0813C74.9182 54.8813 75.9575 51.3212 75.9575 47.4011C75.9575 44.9211 75.5191 42.4797 74.6391 40.0797C76.0843 39.1256 77.7949 38.4273 79.6771 38.4005Z" fill="#FF69B4"/>
</g>
<defs>
<clipPath id="clip0_32_506">
<rect width="120" height="120" fill="white"/>
</clipPath>
</defs>
</svg>
