<svg width="311" height="176" viewBox="0 0 311 176" fill="none" xmlns="http://www.w3.org/2000/svg">
<g clip-path="url(#clip0_32_485)">
<path d="M193.66 123.11L196.322 118.675C196.919 117.693 197.45 116.759 197.919 115.873L198.311 115.145H198.366L198.758 115.862L199.135 116.591C199.505 117.294 199.893 117.99 200.299 118.675L202.951 123.11H207.059L201.149 113.588L206.693 104.653H202.555L200.094 108.776C199.662 109.498 199.303 110.139 199.014 110.695L198.677 111.333C198.604 111.475 198.49 111.692 198.336 111.981H198.285L197.944 111.333L197.607 110.681C197.263 110.051 196.901 109.41 196.512 108.762L194.051 104.653H189.874L195.499 113.588L189.442 123.11H193.66V123.11Z" fill="black"/>
<path d="M220.745 119.971H212.092V104.653H208.587V123.11H220.745V119.971Z" fill="black"/>
<path d="M229.549 120.458C227.538 120.458 226.308 120.315 225.858 120.026C225.407 119.737 225.18 118.95 225.18 117.66L225.169 117.269H221.76L221.774 117.942C221.774 120.088 222.251 121.513 223.199 122.216C224.151 122.919 226.078 123.271 228.982 123.271C232.208 123.271 234.295 122.912 235.244 122.198C236.189 121.48 236.665 119.894 236.665 117.444C236.665 115.452 236.258 114.141 235.453 113.508C234.647 112.878 232.867 112.486 230.117 112.332C227.792 112.208 226.422 112.025 226.008 111.79C225.59 111.556 225.385 110.856 225.385 109.696C225.385 108.714 225.638 108.07 226.147 107.762C226.656 107.454 227.74 107.301 229.399 107.301C230.809 107.301 231.703 107.436 232.08 107.7C232.457 107.967 232.688 108.619 232.768 109.655C232.768 109.736 232.779 109.86 232.798 110.033H236.218V109.329C236.218 107.418 235.735 106.136 234.771 105.477C233.805 104.818 231.937 104.488 229.157 104.488C226.228 104.488 224.272 104.847 223.294 105.565C222.316 106.279 221.83 107.718 221.83 109.871C221.83 111.98 222.232 113.354 223.045 113.995C223.855 114.636 225.722 115.042 228.645 115.211L230.579 115.335C231.67 115.397 232.38 115.577 232.71 115.87C233.036 116.163 233.201 116.752 233.201 117.646C233.201 118.854 232.985 119.627 232.552 119.96C232.12 120.294 231.116 120.458 229.549 120.458Z" fill="black"/>
<path d="M241.612 123.11L244.274 118.675C244.871 117.693 245.402 116.759 245.871 115.873L246.263 115.145H246.318L246.709 115.862L247.087 116.591C247.456 117.294 247.845 117.99 248.251 118.675L250.902 123.11H255.011L249.104 113.588L254.649 104.653H250.511L248.05 108.776C247.614 109.498 247.255 110.139 246.966 110.695L246.629 111.333C246.555 111.475 246.442 111.692 246.292 111.981H246.237L245.9 111.333L245.559 110.681C245.219 110.051 244.852 109.41 244.464 108.762L242.003 104.653H237.825L243.45 113.588L237.393 123.11H241.612V123.11Z" fill="black"/>
<path d="M186.05 32V96.9251H177.332V131.117L186.048 139.833L186.05 152H276.668V57.0829L251.585 32H186.05ZM263.929 127.366H181.082V100.675H263.929V127.366ZM253.454 41.0519L267.613 55.208H253.454V41.0519Z" fill="#054700"/>
</g>
<path d="M91.631 127.148C91.151 126.506 90.6028 126.045 89.9904 125.761C89.3779 125.478 88.7324 125.337 88.0517 125.337C87.3545 125.337 86.6904 125.468 86.0573 125.732C85.4242 125.997 84.8593 126.444 84.3607 127.075C83.8621 127.706 83.469 128.521 83.1876 129.523C82.9042 130.522 82.7531 131.747 82.7345 133.199C82.7531 134.614 82.9 135.821 83.1731 136.82C83.4462 137.819 83.8228 138.634 84.3048 139.268C84.7869 139.901 85.3331 140.36 85.9455 140.654C86.5579 140.948 87.2035 141.092 87.8842 141.092C88.5814 141.092 89.2455 140.956 89.8786 140.683C90.5117 140.41 91.0766 139.961 91.5752 139.34C92.0738 138.719 92.4669 137.902 92.7483 136.892C93.0297 135.883 93.1828 134.654 93.2014 133.201C93.1828 131.786 93.0359 130.584 92.7628 129.595C92.4897 128.606 92.1131 127.789 91.631 127.148Z" fill="#E5C233"/>
<path d="M128.552 112.69V60.92C128.552 59.3352 128.361 58.1621 127.414 57.2124L103.337 33.1379C102.615 32.4159 101.614 32 100.59 32H40.5441C38.0903 32 35.4482 33.8952 35.4482 38.0538V112.69H128.552ZM83.0344 100.276C83.0344 101.418 82.1096 102.345 80.9655 102.345C79.8213 102.345 78.8965 101.418 78.8965 100.276V94.069C78.8965 92.9269 79.8213 92 80.9655 92C82.1096 92 83.0344 92.9269 83.0344 94.069V100.276ZM99.5862 39.0159C99.5862 38.0683 100.73 37.5945 101.401 38.2648L122.287 59.151C122.957 59.8214 122.483 60.9655 121.536 60.9655H99.5862V39.0159ZM97.5172 81.6552V73.3793C97.5172 72.2393 96.5903 71.3103 95.4482 71.3103C94.3041 71.3103 93.3793 70.3834 93.3793 69.2414C93.3793 68.0993 94.3041 67.1724 95.4482 67.1724C98.8703 67.1724 101.655 69.9572 101.655 73.3793V81.6552C101.655 83.9372 103.511 85.7931 105.793 85.7931C106.937 85.7931 107.862 86.72 107.862 87.8621C107.862 89.0041 106.937 89.931 105.793 89.931C103.511 89.931 101.655 91.7869 101.655 94.069V102.345C101.655 105.767 98.8703 108.552 95.4482 108.552C94.3041 108.552 93.3793 107.625 93.3793 106.483C93.3793 105.341 94.3041 104.414 95.4482 104.414C96.5903 104.414 97.5172 103.485 97.5172 102.345V94.069C97.5172 91.5862 98.6386 89.3807 100.377 87.8621C98.6386 86.3434 97.5172 84.1379 97.5172 81.6552ZM80.9655 77.5172C82.6786 77.5172 84.0689 78.9076 84.0689 80.6207C84.0689 82.3338 82.6786 83.7241 80.9655 83.7241C79.2524 83.7241 77.862 82.3338 77.862 80.6207C77.862 78.9076 79.2524 77.5172 80.9655 77.5172ZM56.1379 85.7931C58.42 85.7931 60.2758 83.9372 60.2758 81.6552V73.3793C60.2758 69.9572 63.0607 67.1724 66.4827 67.1724C67.6269 67.1724 68.5517 68.0993 68.5517 69.2414C68.5517 70.3834 67.6269 71.3103 66.4827 71.3103C65.3407 71.3103 64.4138 72.2393 64.4138 73.3793V81.6552C64.4138 84.1379 63.2924 86.3434 61.5544 87.8621C63.2924 89.3807 64.4138 91.5862 64.4138 94.069V102.345C64.4138 103.485 65.3407 104.414 66.4827 104.414C67.6269 104.414 68.5517 105.341 68.5517 106.483C68.5517 107.625 67.6269 108.552 66.4827 108.552C63.0607 108.552 60.2758 105.767 60.2758 102.345V94.069C60.2758 91.7869 58.42 89.931 56.1379 89.931C54.9938 89.931 54.0689 89.0041 54.0689 87.8621C54.0689 86.72 54.9938 85.7931 56.1379 85.7931Z" fill="#E5C233"/>
<path d="M35.4482 116.828V147.862C35.4482 149.95 37.9724 152 40.5441 152H123.456C126.028 152 128.552 149.95 128.552 147.862V116.828H35.4482ZM59.2848 138.688C59.2848 139.669 59.1048 140.495 58.7469 141.163C58.3889 141.831 57.9089 142.369 57.3048 142.775C56.7007 143.18 56.0076 143.463 55.2255 143.623C54.4434 143.782 53.6365 143.863 52.8069 143.863C52.3931 143.863 51.9048 143.819 51.3503 143.735C50.7958 143.65 50.2186 143.519 49.6248 143.339C49.031 143.159 48.46 142.957 47.9138 142.731C47.3676 142.506 46.9062 142.251 46.5276 141.968L47.9696 139.677C48.1579 139.808 48.4269 139.946 48.7765 140.087C49.1262 140.228 49.5089 140.36 49.9227 140.482C50.3365 140.604 50.771 140.712 51.2241 140.807C51.6772 140.902 52.1013 140.948 52.4965 140.948C53.4958 140.948 54.2924 140.753 54.8862 140.368C55.48 139.983 55.7944 139.326 55.8338 138.403V122.449H59.2848V138.688ZM75.7062 140.203C75.3958 140.91 74.9572 141.533 74.3903 142.069C73.8234 142.605 73.1282 143.035 72.2965 143.356C71.4648 143.677 70.5255 143.836 69.4682 143.836C69.0151 143.836 68.5496 143.811 68.0676 143.766C67.5855 143.72 67.1013 143.637 66.611 143.526C66.1207 143.412 65.6531 143.257 65.2103 143.058C64.7676 142.859 64.3869 142.619 64.0641 142.336L64.6579 139.903C64.9227 140.054 65.2558 140.201 65.6613 140.341C66.0669 140.482 66.4848 140.615 66.9193 140.737C67.3538 140.859 67.7862 140.958 68.2207 141.035C68.6551 141.111 69.0586 141.148 69.4372 141.148C70.5876 141.148 71.4689 140.879 72.0813 140.341C72.6938 139.804 73 139.007 73 137.952C73 137.31 72.7848 136.764 72.3503 136.311C71.9158 135.858 71.3738 135.448 70.7241 135.08C70.0744 134.712 69.371 134.346 68.6158 133.977C67.8607 133.609 67.1551 133.175 66.4951 132.676C65.8351 132.177 65.2889 131.588 64.8544 130.909C64.42 130.23 64.2048 129.382 64.2048 128.364C64.2048 127.441 64.3744 126.62 64.7138 125.904C65.0531 125.188 65.5103 124.578 66.0855 124.079C66.6607 123.581 67.331 123.198 68.0944 122.933C68.8579 122.668 69.6648 122.538 70.5131 122.538C71.38 122.538 72.2572 122.619 73.1427 122.778C74.0282 122.937 74.7441 123.198 75.2924 123.556C75.1786 123.8 75.0482 124.069 74.8972 124.363C74.7462 124.657 74.6034 124.928 74.4731 125.182C74.3427 125.437 74.2289 125.65 74.1338 125.819C74.0386 125.989 73.9827 126.084 73.9641 126.103C73.8503 126.047 73.7241 125.972 73.5813 125.877C73.4386 125.782 73.2379 125.689 72.9731 125.594C72.7082 125.499 72.3607 125.435 71.9262 125.395C71.4917 125.356 70.9351 125.366 70.2565 125.424C69.8779 125.463 69.522 125.569 69.1807 125.749C68.8393 125.929 68.5393 126.148 68.2744 126.413C68.0096 126.678 67.8027 126.974 67.6517 127.305C67.5007 127.636 67.4262 127.952 67.4262 128.252C67.4262 129.006 67.6413 129.614 68.0758 130.077C68.5103 130.541 69.0482 130.944 69.6875 131.294C70.3269 131.643 71.0262 131.983 71.7813 132.312C72.5365 132.641 73.2379 133.044 73.8896 133.514C74.5413 133.983 75.0813 134.575 75.5158 135.281C75.9503 135.986 76.1655 136.897 76.1655 138.01C76.1738 138.765 76.0165 139.495 75.7062 140.203ZM95.9882 137.84C95.5455 139.179 94.931 140.292 94.1489 141.177C93.3669 142.063 92.4524 142.733 91.4055 143.186C90.3586 143.639 89.2124 143.865 87.9689 143.865C86.7255 143.865 85.5793 143.639 84.5324 143.186C83.4855 142.733 82.571 142.065 81.7889 141.177C81.0069 140.29 80.3924 139.179 79.9496 137.84C79.5069 136.501 79.2855 134.954 79.2855 133.201C79.2855 131.449 79.5069 129.906 79.9496 128.577C80.3924 127.249 81.0069 126.14 81.7889 125.255C82.571 124.369 83.4855 123.695 84.5324 123.231C85.5793 122.768 86.7255 122.538 87.9689 122.538C89.2124 122.538 90.3586 122.768 91.4055 123.231C92.4524 123.695 93.3669 124.367 94.1489 125.255C94.931 126.142 95.5455 127.249 95.9882 128.577C96.431 129.906 96.6524 131.449 96.6524 133.201C96.6524 134.954 96.431 136.501 95.9882 137.84ZM116.51 143.724H113.059L104.885 129.355V143.724H101.434V122.877H104.885L113.059 137.246V122.877H116.51V143.724Z" fill="#E5C233"/>
<defs>
<clipPath id="clip0_32_485">
<rect width="120" height="120" fill="white" transform="translate(167 32)"/>
</clipPath>
</defs>
</svg>
