<svg width="136" height="136" viewBox="0 0 136 136" fill="none" xmlns="http://www.w3.org/2000/svg">
<g clip-path="url(#clip0_32_472)">
<path d="M68.1774 101.592H41.8132C39.6286 101.592 37.8585 103.362 37.8585 105.546C37.8585 107.731 39.6286 109.501 41.8132 109.501H68.1774C70.3619 109.501 72.132 107.731 72.132 105.546C72.132 103.362 70.3614 101.592 68.1774 101.592Z" fill="#000002"/>
<path d="M21.0809 61.7489H78.7289C80.9135 61.7489 82.6836 59.9788 82.6836 57.7942C82.6836 55.6097 80.9135 53.8396 78.7289 53.8396H21.0809C18.8963 53.8396 17.1262 55.6097 17.1262 57.7942C17.1262 59.9783 18.8968 61.7489 21.0809 61.7489Z" fill="#000002"/>
<path d="M82.6841 76.3936C82.6841 74.2091 80.914 72.439 78.7295 72.439H21.0809C18.8963 72.439 17.1262 74.2091 17.1262 76.3936C17.1262 78.5781 18.8963 80.3482 21.0809 80.3482H78.7289C80.9135 80.3482 82.6841 78.5781 82.6841 76.3936Z" fill="#000002"/>
<path d="M135.77 25.5992C135.306 23.8871 134.195 22.4687 132.641 21.605L126.193 18.0211C125.213 17.4764 124.099 17.1885 122.973 17.1885C120.617 17.1885 118.413 18.4387 117.221 20.4519L99.475 50.437V42.1428C99.475 38.1987 97.3643 33.1278 94.5649 30.3485L74.5001 10.4292C71.7071 7.65624 66.6341 5.56555 62.6989 5.56555H9.22749C4.13972 5.56555 0 9.70527 0 14.793V121.208C0 126.295 4.13972 130.435 9.22749 130.435H90.2475C95.3353 130.435 99.475 126.295 99.475 121.208V90.7933L135.085 30.6253C135.991 29.0956 136.234 27.3103 135.77 25.5992ZM123.411 25.5238L127.552 27.8254L123.713 34.3131L119.571 32.0115L123.411 25.5238ZM87.726 95.1165C87.3295 95.7856 86.1985 96.9045 85.5262 97.2921L82.8697 98.8243L82.769 95.7592C82.7458 95.0664 83.1223 93.5963 83.4756 93.0005L115.541 38.8204L119.683 41.122L87.726 95.1165ZM88.2665 35.2396H72.2233C71.5088 35.2396 70.9051 34.6358 70.9051 33.9214V18.0042L88.2665 35.2396ZM90.2475 122.526H9.22749C8.51302 122.526 7.90928 121.922 7.90928 121.208V14.7925C7.90928 14.078 8.51302 13.4743 9.22749 13.4743H62.6995C62.7949 13.4743 62.8951 13.4801 62.9963 13.4864V33.9219C62.9963 39.0097 67.1361 43.1494 72.2238 43.1494H91.5662V63.713C91.5662 63.7404 91.5699 63.7673 91.5704 63.7942L76.6694 88.9715C75.551 90.8608 74.7912 93.8257 74.8639 96.0202L75.0949 103.04C75.1961 106.148 77.4745 108.492 80.3941 108.492C81.4065 108.492 82.4442 108.202 83.3933 107.654L89.4787 104.144C90.1584 103.751 90.8755 103.217 91.5657 102.608V121.208C91.5657 121.922 90.9625 122.526 90.2475 122.526Z" fill="black"/>
</g>
<defs>
<clipPath id="clip0_32_472">
<rect width="136" height="136" fill="white"/>
</clipPath>
</defs>
</svg>
